<svg xmlns="http://www.w3.org/2000/svg" version="1.1" xmlns:xlink="http://www.w3.org/1999/xlink" xmlns:svgjs="http://svgjs.dev/svgjs" width="1000" height="623" viewBox="0 0 1000 623"><g transform="matrix(1,0,0,1,-0.6060606060606233,0.2522267206477977)"><svg viewBox="0 0 396 247" data-background-color="#ffffff" preserveAspectRatio="xMidYMid meet" height="623" width="1000" xmlns="http://www.w3.org/2000/svg" xmlns:xlink="http://www.w3.org/1999/xlink"><g id="tight-bounds" transform="matrix(1,0,0,1,0.2400000000000091,-0.09999999999999432)"><svg viewBox="0 0 395.52 247.2" height="247.2" width="395.52"><g><svg></svg></g><g><svg viewBox="0 0 395.52 247.2" height="247.2" width="395.52"><g transform="matrix(1,0,0,1,75.54432,53.11408880536912)"><svg viewBox="0 0 244.43135999999998 140.97182238926175" height="140.97182238926175" width="244.43135999999998"><g><svg viewBox="0 0 244.43135999999998 140.97182238926175" height="140.97182238926175" width="244.43135999999998"><g><svg viewBox="0 0 244.43135999999998 140.97182238926175" height="140.97182238926175" width="244.43135999999998"><g><svg viewBox="0 0 244.43135999999998 140.97182238926175" height="140.97182238926175" width="244.43135999999998"><g id="textblocktransform"><svg viewBox="0 0 244.43135999999998 140.97182238926175" height="140.97182238926175" width="244.43135999999998" id="textblock"><g><svg viewBox="0 0 244.43135999999998 140.97182238926175" height="140.97182238926175" width="244.43135999999998"><g transform="matrix(1,0,0,1,0,0)"><svg width="244.43135999999998" viewBox="0.8299999833106995 -30.90999984741211 54.55999755859375 31.469999313354492" height="140.97182238926175" data-palette-color="#50a060"><path d="M11.38 0.56Q13.89 0.56 16.76-0.42 19.63-1.39 21.69-3.66 23.75-5.93 23.75-9.55L23.75-9.55Q23.75-12.13 22.28-14.03 20.8-15.92 18.77-17.13 16.75-18.33 13.6-19.8L13.6-19.8Q11.57-20.75 10.47-21.34 9.38-21.92 8.65-22.64 7.93-23.36 7.93-24.17L7.93-24.17Q7.93-25.49 8.79-26.25 9.64-27 11.23-27L11.23-27Q12.6-27 13.99-26.4 15.38-25.81 16.02-24.83L16.02-24.83 16.97-20.85 21.19-20.12Q21.29-21.41 21.58-25 21.88-28.59 21.88-28.96L21.88-28.96Q21.26-29.47 19.68-29.92 18.09-30.37 16.22-30.64 14.36-30.91 12.99-30.91L12.99-30.91Q9.64-30.91 6.93-29.68 4.22-28.44 2.66-26.17 1.1-23.9 1.1-20.92L1.1-20.92Q1.1-18.26 2.49-16.39 3.88-14.53 5.79-13.39 7.69-12.26 10.67-10.94L10.67-10.94Q12.6-10.08 13.66-9.51 14.72-8.94 15.43-8.22 16.14-7.5 16.14-6.62L16.14-6.62Q16.14-5.91 15.59-5.26 15.04-4.61 14.12-4.21 13.21-3.81 12.16-3.81L12.16-3.81Q10.6-3.81 9.14-4.24 7.69-4.66 7.01-5.42L7.01-5.42 5.98-9.99 1.66-10.69 0.83-1.61Q1.81-0.66 4.64-0.05 7.47 0.56 11.38 0.56L11.38 0.56ZM25.51-30.37L25.58-19.58 29.73-18.95 31.86-26.17 35.76-26.17 35.76-5.1 31.2-3.42 30.88 0 49.36 0 49.75-3.74 44.58-5.08 44.58-26.17 48.58-26.17 50.14-19.95 54.61-19.19 55.39-30.37 25.51-30.37Z" opacity="1" transform="matrix(1,0,0,1,0,0)" fill="#50a060" class="wordmark-text-0" data-fill-palette-color="primary" id="text-0"></path></svg></g></svg></g></svg></g></svg></g></svg></g></svg></g></svg></g><g><path d="M245.816 0c68.262 0 123.6 55.338 123.6 123.6 0 68.262-55.338 123.6-123.6 123.6-34.27 0-65.282-13.947-87.67-36.474h9.214c20.777 18.722 48.286 30.118 78.456 30.117 64.752 0 117.244-52.492 117.243-117.243 0-64.752-52.492-117.244-117.243-117.244-30.17 0-57.679 11.396-78.456 30.118h-9.214c22.388-22.527 53.4-36.474 87.67-36.474z" fill="#50a060" stroke="transparent" data-fill-palette-color="tertiary"></path></g></svg></g><defs></defs></svg><rect width="395.52" height="247.2" fill="none" stroke="none" visibility="hidden"></rect></g></svg></g></svg>